<svg width="12" height="14" viewBox="0 0 12 14" fill="none" xmlns="http://www.w3.org/2000/svg">
<path d="M0 12V9.33333C0 8.41111 0.325 7.625 0.975 6.975C1.625 6.325 2.41111 6 3.33333 6H10.4833C10.9056 6 11.2639 6.14444 11.5583 6.43333C11.8528 6.72222 12 7.07778 12 7.5C12 7.84444 11.8944 8.15278 11.6833 8.425C11.4722 8.69722 11.2056 8.87778 10.8833 8.96667L9.33333 9.41667V12C9.33333 12.2333 9.28056 12.4444 9.175 12.6333C9.06944 12.8222 8.92778 12.9778 8.75 13.1C8.57222 13.2222 8.37778 13.2972 8.16667 13.325C7.95556 13.3528 7.73889 13.3222 7.51667 13.2333L4.36667 12H0ZM8 10H4.25C4.17222 10 4.11389 10.0222 4.075 10.0667C4.03611 10.1111 4.01111 10.1611 4 10.2167C3.98889 10.2722 3.99722 10.325 4.025 10.375C4.05278 10.425 4.1 10.4611 4.16667 10.4833L8 12V10ZM1.33333 10.6667H2.73333C2.71111 10.6 2.69444 10.5333 2.68333 10.4667C2.67222 10.4 2.66667 10.3278 2.66667 10.25C2.66667 9.81667 2.82222 9.44444 3.13333 9.13333C3.44444 8.82222 3.81667 8.66667 4.25 8.66667H6.96667L10.5333 7.68333C10.5889 7.66111 10.6278 7.63333 10.65 7.6C10.6722 7.56667 10.6778 7.52778 10.6667 7.48333C10.6556 7.43889 10.6361 7.40278 10.6083 7.375C10.5806 7.34722 10.5389 7.33333 10.4833 7.33333H3.33333C2.77778 7.33333 2.30556 7.52778 1.91667 7.91667C1.52778 8.30556 1.33333 8.77778 1.33333 9.33333V10.6667ZM4.66667 5.33333C3.93333 5.33333 3.30556 5.07222 2.78333 4.55C2.26111 4.02778 2 3.4 2 2.66667C2 1.93333 2.26111 1.30556 2.78333 0.783333C3.30556 0.261111 3.93333 0 4.66667 0C5.4 0 6.02778 0.261111 6.55 0.783333C7.07222 1.30556 7.33333 1.93333 7.33333 2.66667C7.33333 3.4 7.07222 4.02778 6.55 4.55C6.02778 5.07222 5.4 5.33333 4.66667 5.33333ZM4.66667 4C5.03333 4 5.34722 3.86944 5.60833 3.60833C5.86944 3.34722 6 3.03333 6 2.66667C6 2.3 5.86944 1.98611 5.60833 1.725C5.34722 1.46389 5.03333 1.33333 4.66667 1.33333C4.3 1.33333 3.98611 1.46389 3.725 1.725C3.46389 1.98611 3.33333 2.3 3.33333 2.66667C3.33333 3.03333 3.46389 3.34722 3.725 3.60833C3.98611 3.86944 4.3 4 4.66667 4Z" fill="#1C1B1F"/>
</svg>
